<svg width="16" height="16" viewBox="0 0 16 16" fill="none" xmlns="http://www.w3.org/2000/svg">
<path d="M7.74784 15.2429C1.00656 11.626 0 7.7371 0 5.74094C0 0.723099 5.04716 -0.858088 8 2.39447C10.9584 -0.864275 16 0.726849 16 5.74094C16 7.73713 14.9934 11.626 8.25216 15.2429C8.09475 15.3274 7.90534 15.3275 7.74784 15.2429Z" fill="#FF7976"/>
<path d="M8 2.39446C7.99997 2.39443 7.99994 2.3944 7.99991 2.39437V15.3063C8.08666 15.3063 8.17341 15.2852 8.25219 15.2429C14.9934 11.626 16 7.73709 16 5.74093C16 0.726835 10.9584 -0.864259 8 2.39446Z" fill="#FF5752"/>
</svg>
