<svg width="16" height="16" viewBox="0 0 16 16" fill="none" xmlns="http://www.w3.org/2000/svg">
<g clip-path="url(#clip0)">
<path d="M14.4108 1.90259L8.13472 0.0197813C8.04684 -0.00659375 7.95319 -0.00659375 7.86531 0.0197813L1.58925 1.90259C1.39097 1.96206 1.25522 2.14456 1.25522 2.35156V9.25519C1.25522 10.1531 1.61872 11.0723 2.33562 11.9872C2.88316 12.686 3.64072 13.3877 4.58716 14.0727C6.17706 15.2236 7.74263 15.9296 7.80847 15.9591C7.86941 15.9863 7.93472 16 8.00003 16C8.06534 16 8.13066 15.9864 8.19159 15.9591C8.25744 15.9296 9.823 15.2236 11.4129 14.0727C12.3593 13.3876 13.1168 12.686 13.6644 11.9872C14.3813 11.0723 14.7448 10.1532 14.7448 9.25519V2.35156C14.7448 2.14456 14.609 1.96206 14.4108 1.90259Z" fill="#61DE56"/>
<path d="M14.4108 1.90259L8.13472 0.0197813C8.09078 0.00659375 8.04538 0 8 0V16H8.00003C8.06534 16 8.13066 15.9864 8.19159 15.9591C8.25744 15.9296 9.823 15.2236 11.4129 14.0727C12.3593 13.3876 13.1168 12.686 13.6644 11.9872C14.3813 11.0723 14.7448 10.1532 14.7448 9.25519V2.35156C14.7448 2.14456 14.609 1.96206 14.4108 1.90259Z" fill="#13C37B"/>
</g>
<defs>
<clipPath id="clip0">
<rect width="16" height="16" fill="white"/>
</clipPath>
</defs>
</svg>
